<svg width="34" height="47" viewBox="0 0 34 47" fill="none" xmlns="http://www.w3.org/2000/svg">
<path d="M18.8524 0H2.80477C1.25963 0 0 1.37668 0 3.07459V43.9254C0 45.6233 1.25963 46.9908 2.81317 47H30.9868C32.5404 47 33.7916 45.6233 33.8 43.9254L33.716 13.5833L18.8524 0Z" fill="#4EB3F2"/>
<path d="M18.8525 0L18.8105 13.2621C18.8105 13.2621 18.8525 13.5833 19.1045 13.5833H33.7161L18.8525 0Z" fill="#0077CC"/>
<path d="M3 27.449H5.88875C6.45978 27.449 6.92164 27.5316 7.26594 27.706C7.60184 27.862 7.90415 28.119 8.13088 28.431C8.36601 28.7522 8.53396 29.1285 8.62634 29.5324C8.72711 29.9637 8.78589 30.4134 8.77749 30.8632C8.77749 31.5974 8.70191 32.1664 8.55076 32.5702C8.408 32.9557 8.18966 33.3045 7.91255 33.589C7.66902 33.846 7.36671 34.0295 7.03081 34.1305C6.65292 34.2498 6.26663 34.3049 5.87195 34.314H3V27.449ZM4.93983 29.0092V32.763H5.41848C5.82157 32.763 6.11548 32.7171 6.28343 32.6161C6.46817 32.4968 6.61093 32.3224 6.68651 32.1022C6.77888 31.8544 6.82927 31.4597 6.82927 30.909C6.82927 30.184 6.7201 29.6792 6.50176 29.413C6.28343 29.1469 5.92234 29.0092 5.41848 29.0092H4.93983Z" fill="white"/>
<path d="M9.55859 30.8906C9.55859 29.7709 9.84411 28.899 10.4151 28.2657C10.9862 27.6416 11.7839 27.3296 12.8084 27.3296C13.8581 27.3296 14.6643 27.6325 15.2269 28.2474C15.7895 28.8623 16.0751 29.7158 16.0751 30.8264C16.0751 31.634 15.9491 32.2857 15.7056 32.7996C15.462 33.3044 15.0926 33.7266 14.6307 34.0019C14.1604 34.2864 13.581 34.4333 12.884 34.4333C12.1702 34.4333 11.5824 34.314 11.1205 34.0662C10.6419 33.8092 10.2472 33.3962 9.98687 32.8914C9.70975 32.3683 9.55859 31.6983 9.55859 30.8906ZM11.5068 30.909C11.5068 31.6065 11.6244 32.1021 11.8595 32.405C12.0946 32.7078 12.4137 32.8639 12.8252 32.8639C13.2451 32.8639 13.5642 32.717 13.7993 32.4141C14.0261 32.1205 14.1436 31.5881 14.1436 30.8172C14.1436 30.1656 14.0261 29.6975 13.7825 29.3946C13.5474 29.1009 13.2199 28.9449 12.8084 28.9449C12.4473 28.9357 12.0946 29.1009 11.8679 29.4038C11.6244 29.7067 11.5068 30.2023 11.5068 30.909Z" fill="white"/>
<path d="M21.3152 31.5146L23.0199 32.0745C22.9275 32.5517 22.7428 32.9923 22.4824 33.3777C22.2389 33.7265 21.9282 33.9926 21.5671 34.167C21.206 34.3414 20.7358 34.4332 20.1731 34.4332C19.4929 34.4332 18.9303 34.323 18.502 34.112C18.0737 33.9009 17.6959 33.5154 17.3768 32.9647C17.066 32.414 16.9065 31.7165 16.9065 30.863C16.9065 29.7249 17.1836 28.853 17.7378 28.2381C18.2921 27.6232 19.0731 27.3203 20.0892 27.3203C20.8785 27.3203 21.5083 27.4947 21.9534 27.8435C22.4069 28.1922 22.7428 28.7337 22.9611 29.4588L21.248 29.8718C21.206 29.7066 21.1472 29.5505 21.0633 29.4129C20.9625 29.2568 20.8197 29.1284 20.6602 29.0366C20.1143 28.7521 19.4593 28.9448 19.1234 29.4863C18.9471 29.7708 18.8547 30.2205 18.8547 30.8446C18.8547 31.6064 18.9639 32.1295 19.1738 32.414C19.3838 32.6986 19.6861 32.8362 20.064 32.8454C20.4334 32.8454 20.719 32.7353 20.9037 32.5058C21.0885 32.2856 21.2228 31.9551 21.3152 31.5146Z" fill="white"/>
<path d="M23.5322 27.449H25.6736L26.782 29.5599L27.8653 27.449H29.9815L28.0249 30.7805L30.1662 34.3232H27.9829L26.7401 32.1205L25.4972 34.3232H23.3223L25.4888 30.7438L23.5322 27.449Z" fill="white"/>
</svg>
