<svg width="34" height="47" viewBox="0 0 34 47" fill="none" xmlns="http://www.w3.org/2000/svg">
<path d="M33.8 14.9287V42.3727C33.8 44.9283 31.947 47 29.6612 47H4.13883C1.85302 47 0 44.9283 0 42.3727V4.62731C0.000477705 2.07172 1.85302 0 4.13883 0H21.233L33.8 14.9287Z" fill="#1CA626"/>
<path d="M33.8004 14.9287H23.9926C22.4687 14.9287 21.2334 13.5476 21.2334 11.8439V0L33.8004 14.9287Z" fill="#62DD68"/>
<path d="M7.85922 26.0837L9.69934 32.4912L11.5313 26.0837H14.1449V35.2956H12.1538V33.1449L12.3449 28.7408L10.3538 35.2962H9.04154L7.04474 28.7349L7.23582 33.1454V35.2962H5.25V26.0837H7.85922Z" fill="white"/>
<path d="M17.3921 32.1691V35.2962H15.4062V26.0837H18.6933C19.3239 26.0837 19.8814 26.2135 20.3667 26.4726C20.8516 26.7316 21.2261 27.1022 21.4932 27.5813C21.7573 28.0604 21.892 28.6025 21.892 29.2108C21.892 30.1086 21.6035 30.8253 21.0269 31.3648C20.4532 31.901 19.6636 32.1691 18.6585 32.1691H17.3921ZM17.3921 30.4547H18.6933C19.0788 30.4547 19.3722 30.3495 19.5742 30.1321C19.7763 29.9185 19.8761 29.614 19.8761 29.2226C19.8761 28.7915 19.771 28.4481 19.5637 28.1891C19.3564 27.9333 19.0731 27.8035 18.7148 27.7976H17.3921V30.4547Z" fill="white"/>
<path d="M24.5758 29.7981H25.4758C26.1871 29.7981 26.543 29.4067 26.543 28.6264C26.543 28.3251 26.4594 28.0752 26.2898 27.885C26.1202 27.6922 25.8804 27.5961 25.5704 27.5961C25.3172 27.5961 25.0989 27.6773 24.913 27.8434C24.7244 28.009 24.6326 28.2108 24.6326 28.4581H22.7252C22.7252 27.9732 22.8465 27.5395 23.0863 27.1598C23.329 26.78 23.6629 26.4852 24.0914 26.271C24.5199 26.0574 24.9914 25.9517 25.5035 25.9517C26.4197 25.9517 27.1415 26.1867 27.6646 26.6534C28.1901 27.1234 28.4514 27.7649 28.4514 28.5847C28.4514 28.9794 28.3434 29.3559 28.1256 29.7052C27.9102 30.0577 27.5949 30.344 27.1798 30.564C27.6164 30.7419 27.9613 31.01 28.2092 31.3716C28.4571 31.7299 28.5809 32.1759 28.5809 32.7089C28.5809 33.5314 28.3005 34.1878 27.732 34.6818C27.1664 35.1758 26.425 35.4231 25.5035 35.4231C24.9646 35.4231 24.4635 35.3088 24.0025 35.0765C23.5392 34.8474 23.189 34.528 22.9516 34.1216C22.7142 33.7151 22.5957 33.251 22.5957 32.7329H24.5142C24.5142 33.016 24.614 33.2601 24.8185 33.4678C25.0234 33.6729 25.2737 33.7781 25.5704 33.7781C25.9072 33.7781 26.1737 33.6729 26.3734 33.4646C26.5755 33.2569 26.6753 32.9888 26.6753 32.6635C26.6753 32.1994 26.5702 31.8715 26.3629 31.6787C26.1556 31.4826 25.8699 31.3865 25.5035 31.3865H24.5767V29.7981H24.5758Z" fill="white"/>
</svg>
