<svg width="34" height="48" viewBox="0 0 34 48" fill="none" xmlns="http://www.w3.org/2000/svg">
<path fill-rule="evenodd" clip-rule="evenodd" d="M5.88365 0.5H20.9937L33.8 14.3816V41.3813C33.8 44.7636 31.1687 47.5 27.9276 47.5H5.88365C2.63127 47.5 9.2942e-10 44.7636 9.2942e-10 41.3813V6.61867C-5.71024e-05 3.23637 2.63121 0.5 5.88365 0.5Z" fill="#E5252A"/>
<path opacity="0.302" fill-rule="evenodd" clip-rule="evenodd" d="M20.9817 0.5V14.2759H33.7993L20.9817 0.5Z" fill="white"/>
<path d="M6.53833 35.5679V26.9829H10.0505C10.92 26.9829 11.6089 27.2295 12.1284 27.7345C12.6479 28.2278 12.9076 28.8972 12.9076 29.731C12.9076 30.5649 12.6479 31.2343 12.1284 31.7275C11.6089 32.2325 10.92 32.4792 10.0505 32.4792H8.65013V35.5679H6.53833ZM8.65013 30.6119H9.81332C10.1295 30.6119 10.378 30.5414 10.5474 30.377C10.7168 30.2243 10.8071 30.0129 10.8071 29.7311C10.8071 29.4493 10.7168 29.2379 10.5474 29.0852C10.378 28.9207 10.1296 28.8503 9.81332 28.8503H8.65013V30.6119ZM13.7772 35.5679V26.9829H16.702C17.278 26.9829 17.8201 27.0651 18.3282 27.2413C18.8364 27.4174 19.2994 27.6641 19.706 28.0047C20.1125 28.3335 20.44 28.7798 20.6772 29.3435C20.903 29.9072 21.0273 30.5532 21.0273 31.2813C21.0273 31.9977 20.9031 32.6436 20.6772 33.2073C20.44 33.771 20.1125 34.2173 19.706 34.5461C19.2994 34.8867 18.8364 35.1333 18.3282 35.3095C17.8201 35.4856 17.278 35.5679 16.702 35.5679H13.7772ZM15.8438 33.7006H16.4536C16.7811 33.7006 17.086 33.6654 17.3683 33.5831C17.6393 33.5009 17.8991 33.3717 18.1476 33.1956C18.3847 33.0195 18.5767 32.7728 18.7122 32.444C18.8477 32.1151 18.9155 31.7275 18.9155 31.2813C18.9155 30.8232 18.8477 30.4357 18.7122 30.1069C18.5767 29.7781 18.3847 29.5314 18.1476 29.3553C17.8991 29.1791 17.6394 29.0499 17.3683 28.9677C17.086 28.8855 16.7811 28.8503 16.4536 28.8503H15.8438V33.7006ZM22.0888 35.5679V26.9829H27.9612V28.8503H24.2006V30.2243H27.2046V32.0799H24.2006V35.5679H22.0888Z" fill="white"/>
</svg>
