<svg width="34" height="47" viewBox="0 0 34 47" fill="none" xmlns="http://www.w3.org/2000/svg">
<path fill-rule="evenodd" clip-rule="evenodd" d="M5.88365 0H20.9937L33.8 13.8816V40.8813C33.8 44.2636 31.1687 47 27.9276 47H5.88365C2.63127 47 9.29419e-10 44.2636 9.29419e-10 40.8813V6.11867C-5.71024e-05 2.73637 2.63121 0 5.88365 0Z" fill="#251D36"/>
<path opacity="0.302" fill-rule="evenodd" clip-rule="evenodd" d="M20.9824 0V13.7759H33.8L20.9824 0Z" fill="white"/>
<path d="M8.53742 34.3163V27.6339H6.18848V25.7783H12.9756V27.6339H10.638V34.3163H8.53742ZM20.6097 34.3163H18.4076L16.9056 31.6973L15.4036 34.3163H13.1901L15.7989 29.7596L13.5177 25.7783H15.7198L16.9056 27.8453L18.0801 25.7783H20.2935L18.0124 29.7713L20.6097 34.3163ZM23.1619 34.3163V27.6339H20.8242V25.7783H27.6114V27.6339H25.2624V34.3163H23.1619Z" fill="white"/>
</svg>
