<svg width="34" height="47" viewBox="0 0 34 47" fill="none" xmlns="http://www.w3.org/2000/svg">
<path fill-rule="evenodd" clip-rule="evenodd" d="M5.87251 0H20.9992L33.8 13.8942V40.8763C33.8 44.2555 31.1772 47 27.9275 47H5.87251C2.63932 47 9.26727e-10 44.2555 9.26727e-10 40.8763V6.10655C-5.71075e-05 2.74451 2.63932 0 5.87251 0Z" fill="#00733B"/>
<path opacity="0.302" fill-rule="evenodd" clip-rule="evenodd" d="M20.9834 0V13.7741H33.8007L20.9834 0Z" fill="white"/>
<path d="M14.0551 34.2208H11.8611L10.36 31.5964L8.85888 34.2208H6.64844L9.25481 29.658L6.96191 25.6956H9.17229L10.36 27.754L11.5311 25.6956H13.7416L11.4651 29.6752L14.0551 34.2208ZM14.8304 34.2208V25.6956H16.9253V32.3682H20.4884V34.2208H14.8304V34.2208ZM23.9526 34.3238C23.1277 34.3238 22.402 34.0493 21.7751 33.5176C21.1648 33.0029 20.8184 32.3511 20.7689 31.5793L22.5669 31.0304C22.6165 31.442 22.7814 31.8022 23.0618 32.0767C23.3588 32.3512 23.6887 32.4884 24.0516 32.4884C24.3485 32.4884 24.5959 32.4198 24.7939 32.2825C24.9753 32.1453 25.0743 31.9566 25.0743 31.7337C25.0743 31.545 24.9918 31.3906 24.8433 31.2534C24.6949 31.1333 24.4969 31.0304 24.266 30.9446C24.035 30.8589 23.7546 30.7731 23.4742 30.7045C23.1773 30.6187 22.8803 30.5158 22.5999 30.3786C22.303 30.2585 22.039 30.1041 21.8081 29.9154C21.5606 29.7439 21.3792 29.4866 21.2307 29.1606C21.0822 28.8519 20.9998 28.4745 20.9998 28.0457C20.9998 27.3424 21.2802 26.7592 21.8575 26.2961C22.4349 25.8158 23.1278 25.5928 23.936 25.5928C24.7443 25.5928 25.4536 25.7986 26.0475 26.1932C26.6413 26.6048 27.0207 27.1366 27.1692 27.7884L25.2887 28.6118C25.2062 28.2515 25.0412 27.96 24.8103 27.737C24.5793 27.5311 24.2824 27.4111 23.936 27.4111C23.6721 27.4111 23.4741 27.4797 23.3092 27.5826C23.1607 27.6855 23.0947 27.8399 23.0947 28.0286C23.0947 28.2002 23.1937 28.3545 23.3916 28.4746C23.5896 28.5775 23.8535 28.6632 24.1504 28.7147C24.4474 28.7662 24.7773 28.852 25.1237 28.972C25.4866 29.1093 25.8 29.2465 26.1134 29.4352C26.4103 29.6067 26.6578 29.8983 26.8557 30.2757C27.0702 30.6703 27.1691 31.1334 27.1691 31.6651C27.1691 32.4542 26.8722 33.106 26.2784 33.5863C25.6845 34.0665 24.9094 34.3238 23.9526 34.3238Z" fill="white"/>
</svg>
